<?xml version="1.0" encoding="UTF-8"?>
<svg xmlns="http://www.w3.org/2000/svg" version="1.1" viewBox="0 0 500 500">
  <defs>
    <style>
      .cls-1 {
        fill: #3498db;
      }
    </style>
  </defs>
  <!-- Generator: Adobe Illustrator 28.6.0, SVG Export Plug-In . SVG Version: 1.2.0 Build 709)  -->
  <g>
    <g id="Layer_1">
      <g>
        <path class="cls-1" d="M323.9,194.1l-74.4,74.4-74.4-74.4c-9.5-9.5-24.8-9.5-34.3,0s-9.5,24.8,0,34.3l91.8,91.8c4.7,4.7,11.1,6.9,16.9,6.9s12.1-2.1,16.9-6.9l91.8-91.8c9.5-9.5,9.5-24.8,0-34.3-9.5-9.5-24.8-9.5-34.3,0Z"/>
        <path class="cls-1" d="M379.2-1H119.8C53.3-1-1,53.3-1,119.8v259.5c0,66.4,54.3,120.8,120.8,120.8h259.5c66.4,0,120.8-54.3,120.8-120.8V119.8c0-66.4-54.3-120.8-120.8-120.8ZM451.5,379.2c0,40.1-32.7,72.2-72.2,72.2H119.8c-40.1,0-72.2-32.7-72.2-72.2V119.8c0-40.1,32.7-72.2,72.2-72.2h259.5c40.1,0,72.2,32.7,72.2,72.2,0,0,0,259.5,0,259.5Z"/>
      </g>
    </g>
  </g>
</svg>